# Blender 5.1.0
# www.blender.org
mtllib Office-Medium_Square.mtl
o mesh0
v -2.650000 3.000000 -2.650001
v 2.650000 3.000000 -2.650001
v 2.650000 -0.010000 -2.650000
v -2.650000 -0.010000 -2.650000
vn -0.0000 -0.0000 -1.0000
s 1
usemtl Carpet
f 1//1 2//1 3//1
f 3//1 4//1 1//1
o mesh1
v -2.650000 3.000000 -2.650001
v -2.650000 -0.010000 -2.650000
v -2.650000 3.000000 2.650000
v -2.650000 -0.010000 2.650000
vn -1.0000 -0.0000 -0.0000
s 1
usemtl Carpet
f 7//2 5//2 6//2
f 6//2 8//2 7//2
o mesh10
v -2.500000 -0.000000 -2.500000
v 2.500000 -0.000000 -2.500000
v 2.500000 0.000000 2.500000
v -2.500000 0.000000 2.500000
v -2.500000 -0.000000 -0.500000
v -2.500000 -0.000000 -1.320000
v -2.575000 -0.000000 -0.500000
v -2.575000 -0.000000 -1.320000
vn -0.0000 1.0000 -0.0000
vt 0.182946 1.999909
vt -0.091427 1.999909
vt -0.091427 -0.999909
vt 10.497998 -9.497999
vt 10.497999 10.497998
vt 5.778944 10.497998
vt -9.497999 -9.497999
vt 2.499601 10.497999
vt 0.182946 -0.999909
vt -9.497999 10.497998
s 1
usemtl Carpet
f 15/1/3 13/2/3 14/3/3
f 10/4/3 9/5/3 14/6/3
f 11/7/3 10/4/3 13/8/3
f 14/6/3 13/8/3 10/4/3
f 14/3/3 16/9/3 15/1/3
f 13/8/3 12/10/3 11/7/3
o mesh11
v -2.500000 2.040000 -1.320000
v -2.500000 -0.000000 -1.320000
v -2.575000 -0.000000 -1.320000
v -2.575000 2.040000 -1.320000
vn -0.0000 -0.0000 1.0000
vt -11.598769 15.498486
vt -11.598769 -14.498486
vt -10.495939 -14.498486
vt -10.495939 15.498486
s 1
usemtl Wall
f 20/11/4 19/12/4 18/13/4
f 18/13/4 17/14/4 20/11/4
o mesh12
v -2.575000 -0.000000 -0.500000
v -2.575000 -0.000000 -1.320000
v -2.575000 2.040000 -1.320000
v -2.575000 2.040000 -0.500000
vn 1.0000 -0.0000 -0.0000
vt -0.602820 2.999725
vt -0.602820 -1.999725
vt 0.904367 -1.999725
vt 0.904367 2.999725
s 1
usemtl Wood
f 24/15/5 21/16/5 22/17/5
f 22/17/5 23/18/5 24/15/5
o mesh13
v -2.500000 2.040000 -0.500000
v -2.500000 -0.000000 -0.500000
v -2.575000 -0.000000 -0.500000
v -2.575000 2.040000 -0.500000
vn -0.0000 -0.0000 -1.0000
vt -10.492908 15.498486
vt -10.492908 -14.498486
vt -9.390078 -14.498486
vt -9.390078 15.498486
s 1
usemtl Wall
f 25/19/6 26/20/6 27/21/6
f 27/21/6 28/22/6 25/19/6
o mesh14
v -2.500000 2.040000 -0.500000
v -2.500000 2.040000 -1.320000
v -2.575000 2.040000 -1.320000
v -2.575000 2.040000 -0.500000
vn -0.0000 -1.0000 -0.0000
vt -9.387051 -14.498486
vt -8.284220 -14.498486
vt -8.284219 -2.440879
vt -9.387051 -2.440879
s 1
usemtl Wall
f 31/23/7 30/24/7 29/25/7
f 29/25/7 32/26/7 31/23/7
o mesh2
v -2.650000 3.000000 2.650000
v -2.650000 -0.010000 2.650000
v 2.650000 3.000000 2.650000
v 2.650000 -0.010000 2.650000
vn -0.0000 -0.0000 1.0000
s 1
usemtl Carpet
f 35//8 33//8 34//8
f 34//8 36//8 35//8
o mesh3
v 2.650000 3.000000 -2.650001
v 2.650000 -0.010000 -2.650000
v 2.650000 3.000000 2.650000
v 2.650000 -0.010000 2.650000
vn 1.0000 -0.0000 -0.0000
s 1
usemtl Carpet
f 37//9 39//9 40//9
f 40//9 38//9 37//9
o mesh4
v 2.650000 -0.010000 -2.650000
v -2.650000 -0.010000 -2.650000
v -2.650000 -0.010000 2.650000
v 2.650000 -0.010000 2.650000
vn -0.0000 -1.0000 -0.0000
s 1
usemtl Carpet
f 43//10 42//10 41//10
f 41//10 44//10 43//10
o mesh5
v -2.650000 3.000000 -2.650001
v 2.650000 3.000000 -2.650001
v -2.650000 3.000000 2.650000
v 2.650000 3.000000 2.650000
v -2.500000 3.000000 2.500000
v 2.500000 3.000000 2.500000
v 2.500000 3.000000 -2.500000
v -2.500000 3.000000 -2.500000
vn -0.0000 1.0000 -0.0000
s 1
usemtl Carpet
f 45//11 47//11 49//11
f 47//11 48//11 50//11
f 50//11 49//11 47//11
f 48//11 46//11 51//11
f 46//11 45//11 52//11
f 51//11 50//11 48//11
f 49//11 52//11 45//11
f 52//11 51//11 46//11
o mesh6
v 2.500000 3.000000 -2.500000
v -2.500000 3.000000 -2.500000
v -2.500000 -0.000000 -2.500000
v 2.500000 -0.000000 -2.500000
vn -0.0000 -0.0000 1.0000
vt -2.591920 0.504647
vt 6.402507 0.504646
vt 6.402509 15.495357
vt -2.591918 15.495358
s 1
usemtl Wall
f 54/27/12 55/28/12 56/29/12
f 56/29/12 53/30/12 54/27/12
o mesh7
v 2.500000 3.000000 2.500000
v 2.500000 3.000000 -2.500000
v 2.500000 -0.000000 -2.500000
v 2.500000 0.000000 2.500000
vn -1.0000 -0.0000 -0.0000
vt -2.591921 -5.500928
vt -2.591921 -14.495355
vt 12.398789 -14.495355
vt 12.398789 -5.500927
s 1
usemtl Wall
f 58/31/13 59/32/13 60/33/13
f 60/33/13 57/34/13 58/31/13
o mesh8
v -2.500000 3.000000 2.500000
v 2.500000 3.000000 2.500000
v 2.500000 0.000000 2.500000
v -2.500000 0.000000 2.500000
vn -0.0000 -0.0000 -1.0000
vt -11.595637 -14.495355
vt -2.601211 -14.495355
vt -2.601212 0.495357
vt -11.595639 0.495355
s 1
usemtl Wall
f 62/35/14 63/36/14 64/37/14
f 64/37/14 61/38/14 62/35/14
o mesh9
v -2.500000 3.000000 2.500000
v -2.500000 3.000000 -2.500000
v -2.500000 -0.000000 -2.500000
v -2.500000 0.000000 2.500000
v -2.500000 2.040000 -0.500000
v -2.500000 -0.000000 -0.500000
v -2.500000 2.040000 -1.320000
v -2.500000 -0.000000 -1.320000
vn 1.0000 -0.0000 -0.0000
vt -11.595638 15.495359
vt -11.595639 0.504649
vt -8.717422 9.499074
vt -2.601214 0.504647
vt -2.601213 9.499072
vt -2.601210 15.495358
vt -8.717422 11.957549
vt -2.601211 11.957549
s 1
usemtl Wall
f 66/39/15 65/40/15 69/41/15
f 68/42/15 70/43/15 69/41/15
f 67/44/15 66/39/15 71/45/15
f 69/41/15 65/40/15 68/42/15
f 69/41/15 71/45/15 66/39/15
f 71/45/15 72/46/15 67/44/15
